<?xml version="1.0" encoding="UTF-8" standalone="no"?>
<!DOCTYPE svg PUBLIC "-//W3C//DTD SVG 1.1//EN" "http://www.w3.org/Graphics/SVG/1.1/DTD/svg11.dtd">
<svg width="100%" height="100%" viewBox="0 0 176 114" version="1.1" xmlns="http://www.w3.org/2000/svg" xmlns:xlink="http://www.w3.org/1999/xlink" xml:space="preserve" xmlns:serif="http://www.serif.com/" style="fill-rule:evenodd;clip-rule:evenodd;stroke-linejoin:round;stroke-miterlimit:2;">
    <g id="path5" transform="matrix(0.753096,0,0,0.753096,0.0197513,0.0197513)">
        <path d="M186.51,58.517C184.79,58.517 183.23,58.517 181.671,58.917L165.831,5.52C164.831,2.24 162.312,0.08 158.832,0.08L136.793,0.08C132.713,0.08 129.233,3.4 129.233,7.68C129.233,11.759 132.713,15.239 136.793,15.239L153.232,15.239L159.032,34.838L84.876,34.838L88.955,23.599C89.915,21.439 89.355,18.719 88.195,16.799C86.835,14.839 84.516,13.679 82.196,13.679L57.197,13.679C53.157,13.679 49.677,17.159 49.677,21.239C49.677,25.319 53.157,28.839 57.197,28.839L71.356,28.839L67.077,39.678L57.797,60.437C54.117,59.477 50.037,59.077 46.158,59.077C20.639,58.517 0.08,79.276 0.08,104.675C0.08,130.113 20.639,150.472 45.798,150.472C69.796,150.472 89.715,131.873 91.475,108.394L108.314,108.394C110.434,108.394 112.394,107.394 113.754,105.675L162.912,48.038L167.351,62.797C151.472,69.956 140.433,86.076 140.433,104.515C140.633,129.913 161.152,150.472 186.51,150.472C211.709,150.472 232.388,129.913 232.388,104.675C232.388,79.476 211.869,58.517 186.51,58.517ZM45.798,135.753C28.759,135.753 14.799,121.594 14.799,104.675C14.799,87.435 28.958,73.636 45.798,73.636C47.718,73.636 49.477,73.836 51.197,74.036L40.158,97.915C39.398,100.035 39.398,102.955 40.758,104.875C42.118,107.034 44.438,108.394 47.158,108.394L76.556,108.394C74.836,123.514 61.837,135.753 45.798,135.753ZM74.836,93.435L58.757,93.435L64.757,80.236C69.396,83.356 72.876,88.195 74.836,93.435ZM104.835,93.435L90.315,93.435C87.395,82.196 80.636,72.676 71.356,66.277L78.716,49.597L142.393,49.597L104.835,93.435ZM186.51,135.753C169.311,135.753 155.552,121.594 155.552,104.675C155.552,92.875 161.952,82.556 171.631,77.316L180.711,107.994C181.671,111.274 184.59,113.434 187.67,113.434C188.47,113.434 189.03,113.434 189.83,113.234C193.67,111.874 195.83,107.794 194.87,103.915L185.95,73.636L186.51,73.636C203.549,73.636 217.509,87.635 217.509,104.675C217.509,121.594 203.549,135.753 186.51,135.753Z"/>
    </g>
</svg>
