<?xml version="1.0" encoding="UTF-8" standalone="no"?>
<svg
   xmlns:dc="http://purl.org/dc/elements/1.1/"
   xmlns:cc="http://creativecommons.org/ns#"
   xmlns:rdf="http://www.w3.org/1999/02/22-rdf-syntax-ns#"
   xmlns:svg="http://www.w3.org/2000/svg"
   xmlns="http://www.w3.org/2000/svg"
   xmlns:sodipodi="http://sodipodi.sourceforge.net/DTD/sodipodi-0.dtd"
   xmlns:inkscape="http://www.inkscape.org/namespaces/inkscape"
   version="1.0"
   width="45.139999mm"
   height="45.130001mm"
   id="svg7"
   sodipodi:docname="Haushaltsgeräte_Geschirrspüler.emf">
  <metadata
     id="metadata11">
    <rdf:RDF>
      <cc:Work
         rdf:about="">
        <dc:format>image/svg+xml</dc:format>
        <dc:type
           rdf:resource="http://purl.org/dc/dcmitype/StillImage" />
      </cc:Work>
    </rdf:RDF>
  </metadata>
  <sodipodi:namedview
     pagecolor="#ffffff"
     bordercolor="#666666"
     borderopacity="1"
     objecttolerance="10"
     gridtolerance="10"
     guidetolerance="10"
     inkscape:pageopacity="0"
     inkscape:pageshadow="2"
     inkscape:window-width="640"
     inkscape:window-height="480"
     id="namedview9" />
  <defs
     id="defs3">
    <pattern
       id="EMFhbasepattern"
       patternUnits="userSpaceOnUse"
       width="6"
       height="6"
       x="0"
       y="0" />
  </defs>
  <path
     style="fill:#000000;fill-rule:evenodd;fill-opacity:1;stroke:none;"
     d="  M 114.91403,18.239053   C 114.91403,13.639292 118.43385,10.119474 123.07361,10.119474   C 127.67337,10.119474 131.19319,13.639292 131.19319,18.239053   C 131.19319,22.558828 127.67337,26.358631 123.07361,26.358631   C 118.43385,26.358631 114.91403,22.558828 114.91403,18.239053   z  M 63.196718,22.558828   L 63.196718,13.919277   L 106.55447,13.919277   L 106.55447,22.558828   L 63.196718,22.558828   z  M 46.39759,26.358631   C 41.797829,26.358631 38.278012,22.558828 38.278012,18.239053   C 38.278012,13.639292 41.797829,10.119474 46.39759,10.119474   C 50.997351,10.119474 54.517168,13.639292 54.517168,18.239053   C 54.517168,22.558828 50.997351,26.358631 46.39759,26.358631   z  M 18.799024,150.67217   L 18.799024,57.517013   L 150.67217,57.517013   L 150.67217,150.67217   L 18.799024,150.67217   z  M 169.3512,45.037661   L 0.079995845,45.037661   L 0.079995845,169.3512   L 169.3512,169.3512   L 169.3512,45.037661   z  M 66.196562,71.076308   L 66.196562,94.355099   C 66.196562,101.67472 61.03683,108.15438 53.71721,110.07428   L 53.71721,126.03345   L 65.916576,137.15288   L 34.238222,137.15288   L 46.39759,126.03345   L 46.39759,110.07428   C 39.117968,108.15438 33.958236,101.67472 33.958236,94.355099   L 33.958236,71.076308   L 66.196562,71.076308   z  M 70.236352,104.63457   C 70.236352,86.475509 84.875592,71.876267 102.75466,71.876267   C 120.87372,71.876267 135.51296,86.475509 135.51296,104.63457   C 135.51296,122.51364 120.87372,137.15288 102.75466,137.15288   C 84.875592,137.15288 70.236352,122.51364 70.236352,104.63457   z  M 141.75264,66.436549   L 27.71856,66.436549   L 27.71856,141.75264   L 141.75264,141.75264   L 141.75264,66.436549   z  M 82.955691,104.63457   C 82.955691,93.555141 91.915226,84.875592 102.75466,84.875592   C 113.5941,84.875592 122.51364,93.555141 122.51364,104.63457   C 122.51364,115.474 113.5941,124.39354 102.75466,124.39354   C 91.915226,124.39354 82.955691,115.474 82.955691,104.63457   z  M 102.75466,79.435874   C 88.915382,79.435874 77.835957,90.835282 77.835957,104.63457   C 77.835957,118.43385 88.915382,129.55327 102.75466,129.55327   C 116.55395,129.55327 127.91336,118.43385 127.91336,104.63457   C 127.91336,90.555297 116.55395,79.435874 102.75466,79.435874   z  M 102.75466,92.435199   C 95.955016,92.435199 90.555297,97.874916 90.555297,104.63457   C 90.555297,111.39421 95.955016,116.83393 102.75466,116.83393   C 109.51431,116.83393 114.91403,111.39421 114.91403,104.63457   C 114.91403,97.874916 109.51431,92.435199 102.75466,92.435199   z  M 58.596957,94.355099   L 58.596957,78.635916   L 41.517844,78.635916   L 41.517844,94.355099   C 41.517844,98.95486 45.317646,102.75466 50.197393,102.75466   C 54.797154,102.75466 58.596957,98.95486 58.596957,94.355099   z  M 169.3512,0.079995845   L 0.079995845,0.079995845   L 0.079995845,36.398109   L 169.3512,36.398109   L 169.3512,0.079995845   z "
     id="path5" />
</svg>
