<?xml version="1.0" encoding="UTF-8" standalone="no"?>
<svg
   xmlns:dc="http://purl.org/dc/elements/1.1/"
   xmlns:cc="http://creativecommons.org/ns#"
   xmlns:rdf="http://www.w3.org/1999/02/22-rdf-syntax-ns#"
   xmlns:svg="http://www.w3.org/2000/svg"
   xmlns="http://www.w3.org/2000/svg"
   xmlns:sodipodi="http://sodipodi.sourceforge.net/DTD/sodipodi-0.dtd"
   xmlns:inkscape="http://www.inkscape.org/namespaces/inkscape"
   version="1.0"
   width="58.599998mm"
   height="38.27mm"
   id="svg7"
   sodipodi:docname="E-Bikes.emf">
  <metadata
     id="metadata11">
    <rdf:RDF>
      <cc:Work
         rdf:about="">
        <dc:format>image/svg+xml</dc:format>
        <dc:type
           rdf:resource="http://purl.org/dc/dcmitype/StillImage" />
      </cc:Work>
    </rdf:RDF>
  </metadata>
  <sodipodi:namedview
     pagecolor="#ffffff"
     bordercolor="#666666"
     borderopacity="1"
     objecttolerance="10"
     gridtolerance="10"
     guidetolerance="10"
     inkscape:pageopacity="0"
     inkscape:pageshadow="2"
     inkscape:window-width="640"
     inkscape:window-height="480"
     id="namedview9" />
  <defs
     id="defs3">
    <pattern
       id="EMFhbasepattern"
       patternUnits="userSpaceOnUse"
       width="6"
       height="6"
       x="0"
       y="0" />
  </defs>
  <path
     style="fill:#000000;fill-rule:evenodd;fill-opacity:1;stroke:none;"
     d="  M 177.1108,56.757052   C 171.91107,56.757052 166.75134,57.836996 162.07158,59.636902   L 137.39286,12.599346   L 148.47229,12.599346   C 151.35214,12.599346 153.67202,10.279466 153.67202,7.4396136   C 153.67202,4.5597632 151.35214,2.2398837 148.47229,2.2398837   L 128.79331,2.2398837   C 126.9934,2.2398837 125.1935,3.119838 124.31354,4.7597528   C 123.43359,6.1596801 123.2336,8.1595762 124.15355,9.7594931   L 136.83289,33.87824   L 93.355151,63.036726   L 72.956211,31.038388   L 90.315309,31.038388   C 93.155162,31.038388 95.515039,28.718508 95.515039,25.838658   C 95.515039,22.998805 93.155162,20.678926 90.315309,20.678926   L 48.957457,20.678926   C 46.277596,9.0395305 34.998182,0.079995845 21.398889,0.079995845   L 21.398889,12.959327   L 4.1997819,12.959327   C 1.8799024,12.959327 0.079995845,14.759233 0.079995845,17.079113   C 0.079995845,19.398992 1.8799024,21.358891 4.1997819,21.358891   L 21.398889,21.358891   L 21.398889,30.478417   L 4.1997819,30.478417   C 1.8799024,30.478417 0.079995845,32.478313 0.079995845,34.798193   C 0.079995845,37.118072 1.8799024,38.877981 4.1997819,38.877981   L 21.398889,38.877981   L 21.398889,51.757312   C 34.998182,51.757312 46.277596,42.837775 48.957457,31.038388   L 60.756844,31.038388   L 100.31479,93.435147   L 88.875384,93.435147   C 85.995533,72.516234 67.916472,56.437069 46.077607,56.437069   C 22.278843,56.437069 2.9598463,75.716067 2.9598463,99.514831   C 2.9598463,123.2736 22.278843,142.79258 46.077607,142.79258   C 68.476443,142.79258 87.075477,125.59348 89.235365,103.79461   L 109.8343,103.79461   C 111.5942,103.79461 113.39411,102.71467 114.27406,101.11475   C 115.19402,99.514831 115.19402,97.354943 114.11407,95.755027   L 106.59446,83.75565   L 144.55249,48.557478   L 152.75207,64.276662   C 141.31266,72.156252 133.79305,85.195575 133.79305,100.23479   C 133.79305,123.83357 153.31204,143.11257 177.1108,143.11257   C 200.90956,143.11257 220.22856,123.83357 220.22856,100.23479   C 220.22856,76.276038 200.90956,56.757052 177.1108,56.757052   z  M 46.077607,133.11309   C 27.678562,133.11309 12.639344,117.91388 12.639344,99.514831   C 12.639344,81.075789 27.678562,66.076568 46.077607,66.076568   C 62.556751,66.076568 76.156044,77.875955 79.195887,93.435147   L 44.117709,93.435147   C 41.277856,93.435147 38.917979,95.755027 38.917979,98.594879   C 38.917979,101.47473 41.277856,103.79461 44.117709,103.79461   L 79.395876,103.79461   C 77.235988,120.23376 63.116722,133.11309 46.077607,133.11309   z  M 177.1108,133.47307   C 158.67176,133.47307 143.47255,118.47385 143.47255,100.23479   C 143.47255,88.95538 148.99226,79.115891 157.23183,73.036207   L 172.47104,101.83471   C 173.351,103.63462 175.1509,104.51457 177.1108,104.51457   C 177.83076,104.51457 178.71072,104.31458 179.43068,103.9946   C 181.95055,102.71467 183.03049,99.514831 181.59057,96.994962   L 166.55135,68.236456   C 169.95117,67.156512 173.55099,66.436549 177.1108,66.436549   C 195.54984,66.436549 210.58906,81.63576 210.58906,100.23479   C 210.58906,118.47385 195.54984,133.47307 177.1108,133.47307   z "
     id="path5" />
</svg>
