<?xml version="1.0" encoding="UTF-8" standalone="no"?>
<svg
   xmlns:dc="http://purl.org/dc/elements/1.1/"
   xmlns:cc="http://creativecommons.org/ns#"
   xmlns:rdf="http://www.w3.org/1999/02/22-rdf-syntax-ns#"
   xmlns:svg="http://www.w3.org/2000/svg"
   xmlns="http://www.w3.org/2000/svg"
   xmlns:sodipodi="http://sodipodi.sourceforge.net/DTD/sodipodi-0.dtd"
   xmlns:inkscape="http://www.inkscape.org/namespaces/inkscape"
   version="1.0"
   width="59.52mm"
   height="40.389999mm"
   id="svg10"
   sodipodi:docname="Elektrofahrzeuge.emf">
  <metadata
     id="metadata14">
    <rdf:RDF>
      <cc:Work
         rdf:about="">
        <dc:format>image/svg+xml</dc:format>
        <dc:type
           rdf:resource="http://purl.org/dc/dcmitype/StillImage" />
      </cc:Work>
    </rdf:RDF>
  </metadata>
  <sodipodi:namedview
     pagecolor="#ffffff"
     bordercolor="#666666"
     borderopacity="1"
     objecttolerance="10"
     gridtolerance="10"
     guidetolerance="10"
     inkscape:pageopacity="0"
     inkscape:pageshadow="2"
     inkscape:window-width="640"
     inkscape:window-height="480"
     id="namedview12" />
  <defs
     id="defs6">
    <clipPath
       clipPathUnits="userSpaceOnUse"
       id="clipEmfPath1">
      <path
         d="M -0.47997507,4.3197756 L 224.46834,4.3197756 L 224.46834,156.95185 L -0.47997507,156.95185 z"
         id="path2" />
    </clipPath>
    <pattern
       id="EMFhbasepattern"
       patternUnits="userSpaceOnUse"
       width="6"
       height="6"
       x="0"
       y="0" />
  </defs>
  <path
     style="fill:#000000;fill-rule:evenodd;fill-opacity:1;stroke:none;"
     clip-path="url(#clipEmfPath1)"
     d="  M 15.3992,83.115683   L 14.599242,65.756585   C 6.6796531,49.077451 10.279466,40.597891 20.358943,24.038751   C 22.038855,16.199159 28.358527,11.439406 37.238066,8.759545   C 66.716535,-0.079995845 108.83435,7.9195887 140.19272,21.278895   C 168.03127,33.11828 214.18888,55.957094 195.26986,94.075114   C 215.06883,95.075062 222.58844,106.27448 223.74838,120.67373   L 218.66864,120.27375   C 214.74885,108.91434 203.9894,100.75477 191.31006,100.75477   C 175.31089,100.75477 162.35157,113.71409 162.35157,129.67326   C 162.35157,132.43312 162.75155,135.07298 163.47151,137.59285   L 55.277129,137.59285   C 56.197081,134.713 56.677056,131.63316 56.677056,128.43333   C 56.677056,111.79419 43.197756,98.314894 26.518623,98.314894   C 16.55914,98.314894 7.719599,103.11464 2.2398837,110.55426   C 2.079892,95.075062 2.1198899,92.355203 15.3992,83.115683   z  M 26.518623,103.27464   C 41.117864,103.27464 52.917252,115.11402 52.917252,129.67326   C 52.917252,144.27251 41.117864,156.07189 26.518623,156.07189   C 11.919381,156.07189 0.079995845,144.27251 0.079995845,129.67326   C 0.079995845,115.11402 11.919381,103.27464 26.518623,103.27464   z  M 79.31588,50.877357   L 100.87476,64.636643   C 105.35453,67.476495 101.03475,74.276142 96.554985,71.396292   L 74.996105,57.637006   C 70.516337,54.757156 74.836113,47.997507 79.31588,50.877357   z  M 85.47556,39.07797   L 144.3925,74.356138   C 154.19199,75.836061 164.03148,78.835905 176.03086,84.435614   C 190.03013,55.717106 155.11194,38.438004 134.07304,29.438471   C 110.19428,19.318997 78.235936,13.239312 55.8371,19.918965   C 49.077451,21.958859 44.317698,25.59867 42.997767,31.518363   C 35.358164,44.117709 32.598307,50.557374 38.637993,63.236716   L 39.157966,74.476132   L 39.157966,74.476132   C 82.275727,75.836061 106.51447,72.836217 126.51343,73.036207   L 81.155785,45.837619   C 76.596022,43.11776 80.915797,36.358112 85.47556,39.07797   z  M 135.95294,38.797985   L 157.55182,52.55727   C 162.03158,55.437121 157.71181,62.19677 153.19204,59.356917   L 131.63316,45.597632   C 127.1534,42.717781 131.47317,35.958132 135.95294,38.797985   z  M 191.31006,104.75456   C 205.06935,104.75456 216.26877,115.91398 216.26877,129.67326   C 216.26877,143.47255 205.06935,154.63197 191.31006,154.63197   C 177.51078,154.63197 166.35136,143.47255 166.35136,129.67326   C 166.35136,115.91398 177.51078,104.75456 191.31006,104.75456   z  M 85.275571,100.71477   L 77.675966,100.71477   L 77.675966,120.19376   L 85.275571,120.19376   L 85.275571,100.71477   z  M 88.075425,97.834919   L 131.71316,97.834919   L 131.71316,123.07361   L 88.075425,123.07361   L 88.075425,97.834919   z  M 117.3539,100.71477   L 109.7543,100.71477   L 109.7543,120.19376   L 117.3539,120.19376   L 117.3539,100.71477   z  M 128.51333,100.71477   L 120.91372,100.71477   L 120.91372,120.19376   L 128.51333,120.19376   L 128.51333,100.71477   z "
     id="path8" />
</svg>
