<?xml version="1.0" encoding="UTF-8" standalone="no"?>
<svg
   xmlns:dc="http://purl.org/dc/elements/1.1/"
   xmlns:cc="http://creativecommons.org/ns#"
   xmlns:rdf="http://www.w3.org/1999/02/22-rdf-syntax-ns#"
   xmlns:svg="http://www.w3.org/2000/svg"
   xmlns="http://www.w3.org/2000/svg"
   xmlns:sodipodi="http://sodipodi.sourceforge.net/DTD/sodipodi-0.dtd"
   xmlns:inkscape="http://www.inkscape.org/namespaces/inkscape"
   version="1.0"
   width="53.98mm"
   height="41.41mm"
   id="svg7"
   sodipodi:docname="Datenverarbeitungsgeräte_Laptops.emf">
  <metadata
     id="metadata11">
    <rdf:RDF>
      <cc:Work
         rdf:about="">
        <dc:format>image/svg+xml</dc:format>
        <dc:type
           rdf:resource="http://purl.org/dc/dcmitype/StillImage" />
      </cc:Work>
    </rdf:RDF>
  </metadata>
  <sodipodi:namedview
     pagecolor="#ffffff"
     bordercolor="#666666"
     borderopacity="1"
     objecttolerance="10"
     gridtolerance="10"
     guidetolerance="10"
     inkscape:pageopacity="0"
     inkscape:pageshadow="2"
     inkscape:window-width="640"
     inkscape:window-height="480"
     id="namedview9" />
  <defs
     id="defs3">
    <pattern
       id="EMFhbasepattern"
       patternUnits="userSpaceOnUse"
       width="6"
       height="6"
       x="0"
       y="0" />
  </defs>
  <path
     style="fill:#000000;fill-rule:evenodd;fill-opacity:1;stroke:none;"
     d="  M 196.3498,134.63301   L 180.87061,120.95372   C 187.15028,120.23376 192.19002,114.99403 192.19002,108.51436   L 192.19002,12.719339   C 192.19002,5.8796946 186.43032,0.079995845 179.59067,0.079995845   L 22.958808,0.079995845   C 16.119163,0.079995845 10.359462,5.8796946 10.359462,12.719339   L 10.359462,108.51436   C 10.359462,115.15402 15.59919,120.59374 22.238845,120.95372   L 6.2396759,134.63301   C 4.4397694,135.51296 2.7998546,136.7929 1.7199107,138.39281   L 1.5199211,138.5928   L 1.7199107,138.5928   C 0.63996676,140.19272 0.079995845,142.19261 0.079995845,144.3525   C 0.079995845,150.1122 4.7997507,154.95195 10.719443,154.95195   L 191.83004,154.95195   C 197.78973,154.95195 202.62948,150.1122 202.62948,144.3525   C 202.62948,140.03273 199.94961,136.43291 196.3498,134.63301   z  M 101.27474,7.6796011   C 102.55467,7.6796011 103.63462,8.5595554 103.63462,9.8394889   C 103.63462,11.279414 102.55467,12.159368 101.27474,12.159368   C 100.0348,12.159368 98.95486,11.279414 98.95486,9.8394889   C 98.95486,8.5595554 100.0348,7.6796011 101.27474,7.6796011   z  M 21.878864,102.39468   L 21.878864,18.999013   L 180.67062,18.999013   L 180.67062,102.39468   L 21.878864,102.39468   z  M 14.879227,147.75233   C 13.599294,147.75233 12.719339,146.87237 12.719339,145.59244   C 12.719339,144.51249 13.599294,143.63254 14.879227,143.63254   C 15.959171,143.63254 16.839125,144.51249 16.839125,145.59244   C 16.839125,146.87237 15.959171,147.75233 14.879227,147.75233   z  M 23.158797,147.75233   C 21.878864,147.75233 20.998909,146.87237 20.998909,145.59244   C 20.998909,144.51249 21.878864,143.63254 23.158797,143.63254   C 24.238741,143.63254 25.318685,144.51249 25.318685,145.59244   C 25.318685,146.87237 24.238741,147.75233 23.158797,147.75233   z  M 31.95834,147.75233   C 30.878396,147.75233 29.998442,146.87237 29.998442,145.59244   C 29.998442,144.51249 30.878396,143.63254 31.95834,143.63254   C 33.238274,143.63254 34.118228,144.51249 34.118228,145.59244   C 34.118228,146.87237 33.238274,147.75233 31.95834,147.75233   z  M 108.83435,147.75233   L 91.035272,147.75233   C 89.955328,147.75233 89.035376,146.87237 89.035376,145.59244   C 89.035376,144.51249 89.955328,143.63254 91.035272,143.63254   L 108.83435,143.63254   C 109.91429,143.63254 110.99424,144.51249 110.99424,145.59244   C 110.83424,146.87237 109.91429,147.75233 108.83435,147.75233   z "
     id="path5" />
</svg>
