<?xml version="1.0" encoding="UTF-8" standalone="no"?>
<!DOCTYPE svg PUBLIC "-//W3C//DTD SVG 1.1//EN" "http://www.w3.org/Graphics/SVG/1.1/DTD/svg11.dtd">
<svg width="100%" height="100%" viewBox="0 0 211 119" version="1.1" xmlns="http://www.w3.org/2000/svg" xmlns:xlink="http://www.w3.org/1999/xlink" xml:space="preserve" xmlns:serif="http://www.serif.com/" style="fill-rule:evenodd;clip-rule:evenodd;stroke-linejoin:round;stroke-miterlimit:2;">
    <g id="path5" transform="matrix(0.753613,0,0,0.753613,0.01971,0.01971)">
        <path d="M46.038,64.437C20.519,64.437 0.08,84.836 0.08,110.354C0.08,135.513 20.519,155.912 46.038,155.912C64.437,155.912 80.396,145.032 87.555,129.393L98.435,137.913C98.435,137.913 178.391,138.233 182.831,135.873C177.031,119.554 176.031,104.555 190.35,93.315C188.27,98.435 186.91,104.195 186.91,110.354C186.91,135.513 207.669,155.912 232.868,155.912C258.387,155.912 278.786,135.513 278.786,110.354C278.786,84.476 257.707,63.757 231.828,64.437C234.908,62.397 237.308,60.997 237.308,60.997L233.548,57.957C233.548,57.957 243.747,55.557 241.387,50.437C238.988,45.678 214.829,15.759 214.829,15.759C214.829,15.759 219.229,6.56 210.389,0.08L206.309,9.28C195.11,1.8 186.23,1.12 176.351,10.679C176.351,10.679 175.671,13.719 179.071,18.839C179.071,18.839 212.109,28.679 213.789,36.158C216.189,40.918 207.349,40.598 204.269,44.678L198.83,44.998L187.27,23.599C187.27,23.599 180.111,25.639 175.351,29.358L176.031,33.118C176.031,33.118 137.593,6.92 101.195,45.678C101.195,45.678 74.276,53.157 55.597,29.718C55.597,29.718 55.237,21.879 9.999,23.239L13.399,26.639C6.92,27.319 8.6,33.118 19.839,33.118C19.839,33.118 43.318,59.637 61.037,57.957L86.516,70.556C90.955,77.676 97.755,85.156 98.115,93.995C95.395,94.355 92.675,95.035 89.235,95.715C83.476,77.676 66.117,64.437 46.038,64.437ZM232.868,78.356C250.547,78.356 264.826,92.635 264.826,110.354C264.826,127.713 250.547,141.993 232.868,141.993C215.509,141.993 201.23,127.713 201.23,110.354C201.23,92.635 215.509,78.356 232.868,78.356ZM46.038,141.993C28.359,141.993 14.079,127.713 14.079,110.354C14.079,92.635 28.359,78.356 46.038,78.356C59.317,78.356 70.876,86.875 75.636,98.755C58.637,102.155 41.958,105.915 41.958,105.915L43.998,117.834L76.996,116.474C74.276,131.113 61.357,141.993 46.038,141.993ZM100.835,115.114C101.875,118.514 103.235,120.914 104.595,121.914L89.915,122.594C90.595,120.554 90.955,118.194 91.275,115.794L100.835,115.114Z"/>
    </g>
</svg>
