<?xml version="1.0" encoding="UTF-8" standalone="no"?>
<svg
   xmlns:dc="http://purl.org/dc/elements/1.1/"
   xmlns:cc="http://creativecommons.org/ns#"
   xmlns:rdf="http://www.w3.org/1999/02/22-rdf-syntax-ns#"
   xmlns:svg="http://www.w3.org/2000/svg"
   xmlns="http://www.w3.org/2000/svg"
   xmlns:sodipodi="http://sodipodi.sourceforge.net/DTD/sodipodi-0.dtd"
   xmlns:inkscape="http://www.inkscape.org/namespaces/inkscape"
   version="1.0"
   width="47mm"
   height="49.290001mm"
   id="svg7"
   sodipodi:docname="Werkzeugmaschinen_Pressen.emf">
  <metadata
     id="metadata11">
    <rdf:RDF>
      <cc:Work
         rdf:about="">
        <dc:format>image/svg+xml</dc:format>
        <dc:type
           rdf:resource="http://purl.org/dc/dcmitype/StillImage" />
      </cc:Work>
    </rdf:RDF>
  </metadata>
  <sodipodi:namedview
     pagecolor="#ffffff"
     bordercolor="#666666"
     borderopacity="1"
     objecttolerance="10"
     gridtolerance="10"
     guidetolerance="10"
     inkscape:pageopacity="0"
     inkscape:pageshadow="2"
     inkscape:window-width="640"
     inkscape:window-height="480"
     id="namedview9" />
  <defs
     id="defs3">
    <pattern
       id="EMFhbasepattern"
       patternUnits="userSpaceOnUse"
       width="6"
       height="6"
       x="0"
       y="0" />
  </defs>
  <path
     style="fill:#000000;fill-rule:evenodd;fill-opacity:1;stroke:none;"
     d="  M 55.997092,4.3997715   C 55.997092,1.9998961 53.957197,0.079995845 51.717314,0.079995845   L 4.3997715,0.079995845   C 1.9998961,0.079995845 0.079995845,1.9998961 0.079995845,4.3997715   L 0.079995845,94.715081   L 55.997092,94.715081   L 55.997092,4.3997715   z  M 21.598878,78.395928   C 21.598878,78.55592 21.238897,78.715912 21.238897,79.235885   C 21.238897,79.395876 21.078905,79.595866 20.918913,79.755858   C 20.558932,80.115839 20.558932,80.275831 20.39894,80.435822   C 20.238949,80.635812 20.038959,80.795804 19.878967,80.795804   C 19.518986,80.795804 19.358995,81.115787 19.199003,81.315776   C 18.839022,81.315776 18.67903,81.475768 18.319049,81.475768   L 17.479092,81.475768   L 16.599138,81.475768   C 16.439146,81.475768 16.079165,81.315776 15.759181,81.315776   C 15.59919,81.315776 15.239208,81.115787 15.079217,80.795804   C 14.879227,80.635812 14.719235,80.635812 14.359254,80.435822   C 14.199262,80.275831 14.039271,79.915849 14.039271,79.755858   C 13.879279,79.595866 13.879279,79.395876 13.519298,79.235885   C 13.359306,78.915901 13.359306,78.715912 13.359306,78.395928   L 13.359306,77.515974   C 13.359306,76.316036 13.879279,75.27609 14.719235,74.436134   C 14.879227,74.236144 15.079217,74.076153 15.239208,74.076153   C 15.59919,73.716171 15.759181,73.716171 15.919173,73.55618   C 16.079165,73.55618 16.439146,73.396188 16.799127,73.396188   C 18.319049,73.036207 19.518986,73.55618 20.758922,74.436134   C 21.078905,75.27609 21.598878,76.316036 21.598878,77.515974   L 21.598878,78.395928   z  M 43.11776,78.395928   C 43.11776,78.55592 42.757779,78.715912 42.757779,79.235885   C 42.757779,79.395876 42.597787,79.595866 42.397798,79.755858   C 42.237806,80.115839 42.237806,80.275831 41.877825,80.435822   C 40.877877,81.315776 39.837931,81.835749 38.797985,81.835749   C 37.598047,81.835749 36.558101,81.315776 35.718145,80.435822   C 35.518155,80.275831 35.358164,80.115839 35.358164,79.755858   C 34.998182,79.595866 34.998182,79.395876 34.838191,79.235885   C 34.678199,78.915901 34.678199,78.715912 34.678199,78.395928   L 34.678199,77.515974   C 34.678199,76.316036 34.998182,75.27609 35.878137,74.436134   C 37.438055,72.876215 40.517896,72.876215 41.877825,74.436134   C 42.597787,75.27609 43.11776,76.316036 43.11776,77.515974   L 43.11776,78.395928   z  M 43.11776,55.997092   C 43.11776,58.236975 41.037869,60.316867 38.797985,60.316867   L 17.3191,60.316867   C 14.879227,60.316867 12.999325,58.236975 12.999325,55.997092   L 12.999325,17.3191   C 12.999325,14.879227 14.879227,12.999325 17.3191,12.999325   L 38.797985,12.999325   C 41.037869,12.999325 43.11776,14.879227 43.11776,17.3191   L 43.11776,55.997092   z  M 21.598878,21.598878   L 34.518207,21.598878   L 34.518207,51.717314   L 21.598878,51.717314   L 21.598878,21.598878   z  M 0.079995845,103.31463   L 176.39084,103.31463   L 176.39084,111.91419   C 176.39084,114.15407 174.35094,116.23396 172.11106,116.23396   L 4.3997715,116.23396   C 1.9998961,116.23396 0.079995845,114.15407 0.079995845,111.91419   L 0.079995845,103.31463   z  M 176.39084,4.3997715   L 176.39084,94.715081   L 163.51151,94.715081   L 163.51151,4.3997715   C 163.51151,1.9998961 165.39141,0.079995845 167.79129,0.079995845   L 172.11106,0.079995845   C 174.35094,0.079995845 176.39084,1.9998961 176.39084,4.3997715   z  M 154.91195,137.75285   L 21.598878,137.75285   L 21.598878,124.83352   L 154.91195,124.83352   L 154.91195,137.75285   z  M 176.39084,180.75061   C 176.39084,182.9905 174.35094,185.03039 172.11106,185.03039   L 124.79352,185.03039   C 122.39364,185.03039 120.51374,182.9905 120.51374,180.75061   C 120.51374,178.35074 122.39364,176.43084 124.79352,176.43084   L 141.99262,176.43084   L 141.99262,146.3524   L 154.91195,146.3524   L 154.91195,176.43084   L 172.11106,176.43084   C 174.35094,176.43084 176.39084,178.35074 176.39084,180.75061   z  M 55.997092,180.75061   C 55.997092,182.9905 53.957197,185.03039 51.717314,185.03039   L 4.3997715,185.03039   C 1.9998961,185.03039 0.079995845,182.9905 0.079995845,180.75061   C 0.079995845,178.35074 1.9998961,176.43084 4.3997715,176.43084   L 21.598878,176.43084   L 21.598878,146.3524   L 34.518207,146.3524   L 34.518207,176.43084   L 51.717314,176.43084   C 53.957197,176.43084 55.997092,178.35074 55.997092,180.75061   z  M 111.91419,51.717314   L 64.596645,51.717314   L 64.596645,21.598878   L 111.91419,21.598878   L 111.91419,4.3997715   C 111.91419,1.9998961 113.79409,0.079995845 116.19396,0.079995845   C 118.43385,0.079995845 120.51374,1.9998961 120.51374,4.3997715   L 120.51374,68.916421   C 120.51374,71.156304 118.43385,73.236196 116.19396,73.236196   C 113.79409,73.236196 111.91419,71.156304 111.91419,68.916421   L 111.91419,51.717314   z  M 133.39307,68.916421   L 133.39307,4.3997715   C 133.39307,1.9998961 135.31297,0.079995845 137.71285,0.079995845   C 139.95273,0.079995845 141.99262,1.9998961 141.99262,4.3997715   L 141.99262,21.598878   L 154.91195,21.598878   L 154.91195,51.717314   L 141.99262,51.717314   L 141.99262,68.916421   C 141.99262,71.156304 139.95273,73.236196 137.71285,73.236196   C 135.31297,73.236196 133.39307,71.156304 133.39307,68.916421   z "
     id="path5" />
</svg>
