<?xml version="1.0" encoding="UTF-8" standalone="no"?>
<!DOCTYPE svg PUBLIC "-//W3C//DTD SVG 1.1//EN" "http://www.w3.org/Graphics/SVG/1.1/DTD/svg11.dtd">
<svg width="100%" height="100%" viewBox="0 0 145 138" version="1.1" xmlns="http://www.w3.org/2000/svg" xmlns:xlink="http://www.w3.org/1999/xlink" xml:space="preserve" xmlns:serif="http://www.serif.com/" style="fill-rule:evenodd;clip-rule:evenodd;stroke-linejoin:round;stroke-miterlimit:2;">
    <g id="path5" transform="matrix(0.750708,0,0,0.750708,0.0199423,0.0199423)">
        <path d="M52.837,76.876L28.759,76.876C28.759,76.876 28.759,67.357 19.279,67.357C0.08,67.357 0.08,57.677 0.08,28.958C0.08,0.08 38.438,0.08 38.438,0.08L105.435,0.08C115.114,0.08 115.114,9.759 115.114,9.759L124.594,9.759L124.594,0.08C124.594,0.08 162.952,0.08 162.952,19.279L162.952,24.199L191.75,24.199L191.75,33.718L162.952,33.718L162.952,38.478C162.952,57.677 124.594,57.677 124.594,57.677L124.594,48.157L115.114,48.157C115.114,57.677 105.435,57.677 105.435,57.677L95.915,57.677L95.915,86.516C95.915,96.035 86.276,96.035 86.276,96.035C76.756,96.035 76.756,105.715 76.756,105.715L76.756,124.914C76.756,134.433 86.276,134.433 86.276,134.433C86.276,134.433 124.594,144.113 124.594,163.312L124.594,172.831C124.594,182.471 115.114,182.471 115.114,182.471L38.438,182.471C19.279,182.471 9.6,153.632 19.279,144.113C25.719,137.673 27.839,131.193 28.479,124.914L52.837,124.914C55.437,124.914 57.597,122.754 57.597,120.154C57.597,117.394 55.437,115.234 52.837,115.234L28.759,115.234L28.759,105.715L52.837,105.715C55.437,105.715 57.597,103.595 57.597,100.955C57.597,98.195 55.437,96.035 52.837,96.035L28.759,96.035L28.759,86.516L52.837,86.516C55.437,86.516 57.597,84.396 57.597,81.756C57.597,78.996 55.437,76.876 52.837,76.876ZM115.114,38.478L124.594,38.478L124.594,19.279L115.114,19.279L115.114,38.478ZM76.756,88.835C79.356,87.315 82.436,86.516 86.116,86.516L86.436,86.516L86.436,67.357L76.756,67.357L76.756,88.835Z"/>
    </g>
</svg>
