<?xml version="1.0" encoding="UTF-8" standalone="no"?>
<!DOCTYPE svg PUBLIC "-//W3C//DTD SVG 1.1//EN" "http://www.w3.org/Graphics/SVG/1.1/DTD/svg11.dtd">
<svg width="100%" height="100%" viewBox="0 0 148 104" version="1.1" xmlns="http://www.w3.org/2000/svg" xmlns:xlink="http://www.w3.org/1999/xlink" xml:space="preserve" xmlns:serif="http://www.serif.com/" style="fill-rule:evenodd;clip-rule:evenodd;stroke-linejoin:round;stroke-miterlimit:2;">
    <g id="path5" transform="matrix(0.753769,0,0,0.753769,0.0196974,0.0196974)">
        <path d="M39.118,58.717C60.837,58.717 78.316,76.396 78.316,97.955C78.316,119.554 60.837,137.033 39.118,137.033C17.599,137.033 0.08,119.554 0.08,97.955C0.08,76.396 17.599,58.717 39.118,58.717ZM38.838,75.756C50.837,75.756 60.677,85.756 60.677,97.955C60.677,110.154 50.837,119.994 38.838,119.994C26.799,119.994 17.119,110.154 17.119,97.955C17.119,85.756 26.799,75.756 38.838,75.756ZM171.871,90.315C184.83,90.315 195.27,100.795 195.27,113.594C195.27,126.593 184.83,137.033 171.871,137.033C158.912,137.033 148.432,126.593 148.432,113.594C148.432,100.795 158.912,90.315 171.871,90.315ZM171.871,103.755C177.191,103.755 181.551,107.954 181.551,113.274C181.551,118.594 177.191,122.994 171.871,122.994C166.551,122.994 162.352,118.594 162.352,113.274C162.352,107.954 166.551,103.755 171.871,103.755ZM183.75,44.958C184.99,44.958 185.59,45.918 185.59,46.998L185.59,47.478C183.43,58.397 181.231,69.356 178.591,80.316L194.99,80.316L194.99,96.715C189.83,89.195 181.551,85.156 172.191,85.156C160.632,84.836 150.472,91.875 145.632,102.195L85.996,102.195L85.996,97.955C85.996,85.476 81.156,73.596 72.236,64.517C67.716,60.117 63.197,55.597 58.797,50.757L20.559,50.757C15.399,55.917 10.079,61.397 4.64,66.837C3.24,65.117 1.68,63.557 0.08,61.997C4.92,57.157 10.079,51.997 15.079,46.998C17.759,34.798 20.559,22.439 23.519,9.959L23.519,0.08L93.955,0.08L93.955,9.959C97.235,18.999 100.355,27.919 103.635,37.318L103.635,44.958L150.472,44.958L150.472,33.398L154.552,33.398L154.552,23.559L158.432,23.559L158.432,33.398L162.352,33.398L162.352,44.958L183.75,44.958ZM93.955,38.878C90.515,29.318 86.915,19.639 83.476,9.959L63.477,9.959L63.477,38.878L93.955,38.878ZM54.277,38.878L54.277,9.959L31.158,9.959C29.318,19.639 27.279,29.318 25.079,38.878L54.277,38.878ZM93.955,58.397L93.955,44.958L63.477,44.958C67.716,49.517 72.236,54.037 76.756,58.397L93.955,58.397Z"/>
    </g>
</svg>
